# xmcd
# Copyright (C) 1995-1998 Ti Kan
#
# Track frame offsets:
#       150
#       17700
#       37535
#       55650
#       76182
#       97695
#       121395
#       139187
#       155575
#       173875
#       189729
#       200700
#
# Disc length: 2993 seconds
#
# Revision: 0
# Processed by: cddbd v1.5.2PL0 Copyright (c) Steve Scherf et al.
# Submitted via: CD-Import v1.0
#
DISCID=910baf0c
DTITLE=Muse - Showbiz
DYEAR=1999
DGENRE=
TTITLE0=Sunburn
TTITLE1=Muscle Museum
TTITLE2=Fillip
TTITLE3=Falling Down
TTITLE4=Cave
TTITLE5=Showbiz
TTITLE6=Unintended
TTITLE7=Uno
TTITLE8=Sober
TTITLE9=Escape
TTITLE10=Overdue
TTITLE11=Hate This and I'll Love You
EXTD=
EXTT0=
EXTT1=
EXTT2=
EXTT3=
EXTT4=
EXTT5=
EXTT6=
EXTT7=
EXTT8=
EXTT9=
EXTT10=
EXTT11=
PLAYORDER=
